<svg width="16" height="16" viewBox="0 0 16 16" fill="none" xmlns="http://www.w3.org/2000/svg">
<path fill-rule="evenodd" clip-rule="evenodd" d="M8 15.5C12.1421 15.5 15.5 12.1421 15.5 8C15.5 3.85786 12.1421 0.5 8 0.5C3.85786 0.5 0.5 3.85786 0.5 8C0.5 12.1421 3.85786 15.5 8 15.5ZM10.427 5.39255C10.7106 5.0916 11.2362 5.14816 11.5278 5.39255C11.8534 5.66547 11.7932 6.11611 11.5278 6.39768L7.56268 10.6053C7.30802 10.8756 6.71524 10.8875 6.46185 10.6053L4.46953 8.38686C4.19295 8.07889 4.16113 7.68848 4.46953 7.38172C4.73477 7.1179 5.31108 7.09302 5.57035 7.38172L7.02551 9.00207L10.427 5.39255Z" fill="#F3FBF7"/>
</svg>
