<svg width="25" height="24" viewBox="0 0 25 24" fill="none" xmlns="http://www.w3.org/2000/svg">
<g clip-path="url(#clip0_1537_1099)">
<path d="M21.084 4H17.984C17.7519 2.87141 17.1378 1.85735 16.2452 1.12872C15.3527 0.40009 14.2362 0.00145452 13.084 0L11.084 0C9.93178 0.00145452 8.8153 0.40009 7.92273 1.12872C7.03016 1.85735 6.41608 2.87141 6.18398 4H3.08398C2.81877 4 2.56441 4.10536 2.37688 4.29289C2.18934 4.48043 2.08398 4.73478 2.08398 5C2.08398 5.26522 2.18934 5.51957 2.37688 5.70711C2.56441 5.89464 2.81877 6 3.08398 6H4.08398V19C4.08557 20.3256 4.61287 21.5964 5.5502 22.5338C6.48754 23.4711 7.75839 23.9984 9.08398 24H15.084C16.4096 23.9984 17.6804 23.4711 18.6178 22.5338C19.5551 21.5964 20.0824 20.3256 20.084 19V6H21.084C21.3492 6 21.6036 5.89464 21.7911 5.70711C21.9786 5.51957 22.084 5.26522 22.084 5C22.084 4.73478 21.9786 4.48043 21.7911 4.29289C21.6036 4.10536 21.3492 4 21.084 4ZM11.084 2H13.084C13.7043 2.00076 14.3091 2.19338 14.8156 2.55144C15.3221 2.90951 15.7054 3.41549 15.913 4H8.25498C8.46257 3.41549 8.84588 2.90951 9.35237 2.55144C9.85886 2.19338 10.4637 2.00076 11.084 2ZM18.084 19C18.084 19.7956 17.7679 20.5587 17.2053 21.1213C16.6427 21.6839 15.8796 22 15.084 22H9.08398C8.28833 22 7.52527 21.6839 6.96266 21.1213C6.40005 20.5587 6.08398 19.7956 6.08398 19V6H18.084V19Z" fill="#474747"/>
<path d="M10.084 17.9994C10.3492 17.9994 10.6036 17.894 10.7911 17.7065C10.9786 17.5189 11.084 17.2646 11.084 16.9994V10.9994C11.084 10.7342 10.9786 10.4798 10.7911 10.2923C10.6036 10.1047 10.3492 9.99939 10.084 9.99939C9.81877 9.99939 9.56441 10.1047 9.37688 10.2923C9.18934 10.4798 9.08398 10.7342 9.08398 10.9994V16.9994C9.08398 17.2646 9.18934 17.5189 9.37688 17.7065C9.56441 17.894 9.81877 17.9994 10.084 17.9994Z" fill="#474747"/>
<path d="M14.084 17.9994C14.3492 17.9994 14.6036 17.894 14.7911 17.7065C14.9786 17.5189 15.084 17.2646 15.084 16.9994V10.9994C15.084 10.7342 14.9786 10.4798 14.7911 10.2923C14.6036 10.1047 14.3492 9.99939 14.084 9.99939C13.8188 9.99939 13.5644 10.1047 13.3769 10.2923C13.1893 10.4798 13.084 10.7342 13.084 10.9994V16.9994C13.084 17.2646 13.1893 17.5189 13.3769 17.7065C13.5644 17.894 13.8188 17.9994 14.084 17.9994Z" fill="#474747"/>
</g>
<defs>
<clipPath id="clip0_1537_1099">
<rect width="24" height="24" fill="white" transform="translate(0.0839844)"/>
</clipPath>
</defs>
</svg>
