<svg width="22" height="22" viewBox="0 0 22 22" fill="none" xmlns="http://www.w3.org/2000/svg">
<g clip-path="url(#clip0_1537_1097)">
<path d="M10.5417 0C8.45673 0 6.4186 0.645139 4.68503 1.85383C2.95147 3.06253 1.60032 4.7805 0.802441 6.79048C0.00456756 8.80047 -0.204193 11.0122 0.20256 13.146C0.609312 15.2798 1.61331 17.2398 3.08759 18.7782C4.56187 20.3166 6.44021 21.3642 8.4851 21.7886C10.53 22.2131 12.6496 21.9952 14.5758 21.1627C16.502 20.3301 18.1484 18.9202 19.3067 17.1113C20.4651 15.3023 21.0833 13.1756 21.0833 11C21.0803 8.08359 19.9687 5.28753 17.9924 3.22531C16.0161 1.16309 13.3366 0.00315432 10.5417 0V0ZM10.5417 1.83333C12.5678 1.83165 14.5316 2.5646 16.0971 3.90683L3.74405 16.797C2.69038 15.4549 2.0237 13.828 1.82162 12.1059C1.61953 10.3838 1.89035 8.63715 2.60255 7.06937C3.31476 5.50159 4.43904 4.17714 5.84455 3.25017C7.25005 2.32321 8.87897 1.83186 10.5417 1.83333ZM10.5417 20.1667C8.5155 20.1684 6.55171 19.4354 4.98621 18.0932L17.3393 5.203C18.393 6.54515 19.0596 8.17197 19.2617 9.89411C19.4638 11.6162 19.193 13.3629 18.4808 14.9306C17.7686 16.4984 16.6443 17.8229 15.2388 18.7498C13.8333 19.6768 12.2044 20.1681 10.5417 20.1667Z" fill="#474747"/>
</g>
<defs>
<clipPath id="clip0_1537_1097">
<rect width="21.0833" height="22" fill="white"/>
</clipPath>
</defs>
</svg>
