<svg width="80" height="80" viewBox="0 0 80 80" fill="none" xmlns="http://www.w3.org/2000/svg">
<circle cx="40" cy="40" r="40" fill="#9E9D9D"/>
<path d="M61.3327 58.1173C55.914 63.3894 48.3962 66.6666 40.089 66.6666C31.6879 66.6666 24.0975 63.3075 18.666 57.9289V54.3772C18.666 49.8547 22.4847 46.1843 27.1993 46.1843H52.7994C57.514 46.1843 61.3327 49.8547 61.3327 54.3772V58.1173Z" fill="white"/>
<path d="M39.9971 16C33.0488 16 27.418 21.5484 27.418 28.3951C27.418 35.2459 33.0488 40.7943 39.9971 40.7943C46.9454 40.7943 52.5804 35.2459 52.5804 28.3951C52.5804 21.5484 46.9454 16 39.9971 16Z" fill="white"/>
</svg>
