<svg width="21" height="24" viewBox="0 0 21 24" fill="none" xmlns="http://www.w3.org/2000/svg">
<path d="M18.464 0H3.53225C2.74022 0 1.98063 0.31607 1.42058 0.87868C0.860531 1.44129 0.545898 2.20435 0.545898 3V21C0.545898 21.7956 0.860531 22.5587 1.42058 23.1213C1.98063 23.6839 2.74022 24 3.53225 24H20.4549V2C20.4549 1.46957 20.2451 0.960859 19.8718 0.585786C19.4984 0.210714 18.992 0 18.464 0V0ZM18.464 18H6.51859V2H18.464V18ZM3.53225 2H4.5277V18H3.54917C3.20348 18.003 2.86094 18.0663 2.5368 18.187V3C2.5368 2.73478 2.64167 2.48043 2.82836 2.29289C3.01504 2.10536 3.26824 2 3.53225 2ZM3.53225 22C3.26961 22 3.01761 21.8958 2.83116 21.7099C2.6447 21.5241 2.5389 21.2718 2.5368 21.008H2.55173C2.55068 20.876 2.57565 20.7451 2.6252 20.6229C2.67476 20.5006 2.74792 20.3894 2.84046 20.2957C2.933 20.202 3.04309 20.1276 3.16439 20.0769C3.28568 20.0261 3.41578 20 3.54718 20H18.464V22H3.53225Z" fill="#505050"/>
</svg>
