<svg width="24" height="24" viewBox="0 0 24 24" fill="none" xmlns="http://www.w3.org/2000/svg">
<path d="M13.2675 0.833055C12.902 0.502491 12.4275 0.31958 11.9356 0.31958C11.4438 0.31958 10.9693 0.502491 10.6037 0.833055L-0.00976562 10.4291V20.8291C-0.00976562 21.6778 0.325842 22.4917 0.923228 23.0918C1.52061 23.6919 2.33084 24.0291 3.17567 24.0291H20.6956C21.5404 24.0291 22.3506 23.6919 22.948 23.0918C23.5454 22.4917 23.881 21.6778 23.881 20.8291V10.4291L13.2675 0.833055ZM14.922 22.0261H8.94928V17.0001C8.94928 16.2044 9.26391 15.4413 9.82396 14.8787C10.384 14.3161 11.1436 14.0001 11.9356 14.0001C12.7277 14.0001 13.4872 14.3161 14.0473 14.8787C14.6073 15.4413 14.922 16.2044 14.922 17.0001V22.0261ZM21.8901 20.8261C21.8901 21.1443 21.7643 21.4495 21.5402 21.6746C21.3162 21.8996 21.0124 22.0261 20.6956 22.0261H16.9129V17.0001C16.9129 15.674 16.3885 14.4022 15.4551 13.4645C14.5217 12.5268 13.2557 12.0001 11.9356 12.0001C10.6156 12.0001 9.3496 12.5268 8.41618 13.4645C7.48277 14.4022 6.95838 15.674 6.95838 17.0001V22.0261H3.17567C2.85886 22.0261 2.55503 21.8996 2.33101 21.6746C2.10699 21.4495 1.98113 21.1443 1.98113 20.8261V11.3191L11.9356 2.31906L21.8901 11.3191V20.8261Z" fill="#505050"/>
</svg>
