<svg width="202" height="48" viewBox="0 0 202 48" fill="none" xmlns="http://www.w3.org/2000/svg">
<path d="M12.616 36.624C10.824 36.624 9.088 36.344 7.408 35.784C5.744 35.224 4.288 34.424 3.04 33.384C1.792 32.344 0.912 31.104 0.4 29.664L3.544 28.488C3.896 29.48 4.536 30.336 5.464 31.056C6.408 31.76 7.504 32.304 8.752 32.688C10.016 33.072 11.304 33.264 12.616 33.264C14.152 33.264 15.584 33.008 16.912 32.496C18.24 31.984 19.312 31.272 20.128 30.36C20.944 29.432 21.352 28.344 21.352 27.096C21.352 25.832 20.928 24.792 20.08 23.976C19.232 23.16 18.136 22.52 16.792 22.056C15.464 21.576 14.072 21.208 12.616 20.952C10.328 20.552 8.272 20.008 6.448 19.32C4.64 18.632 3.208 17.664 2.152 16.416C1.096 15.152 0.568 13.488 0.568 11.424C0.568 9.488 1.128 7.808 2.248 6.384C3.368 4.96 4.84 3.856 6.664 3.072C8.504 2.288 10.488 1.896 12.616 1.896C14.36 1.896 16.064 2.168 17.728 2.712C19.392 3.256 20.856 4.048 22.12 5.088C23.4 6.128 24.32 7.4 24.88 8.904L21.688 10.056C21.336 9.048 20.688 8.192 19.744 7.488C18.816 6.768 17.728 6.224 16.48 5.856C15.232 5.472 13.944 5.28 12.616 5.28C11.096 5.264 9.672 5.52 8.344 6.048C7.032 6.56 5.968 7.28 5.152 8.208C4.336 9.12 3.928 10.192 3.928 11.424C3.928 12.864 4.304 13.976 5.056 14.76C5.824 15.528 6.864 16.104 8.176 16.488C9.488 16.872 10.968 17.216 12.616 17.52C14.76 17.888 16.752 18.464 18.592 19.248C20.432 20.016 21.912 21.048 23.032 22.344C24.152 23.624 24.712 25.208 24.712 27.096C24.712 29.016 24.152 30.696 23.032 32.136C21.912 33.56 20.432 34.664 18.592 35.448C16.768 36.232 14.776 36.624 12.616 36.624ZM42.2065 15.36H36.4705L36.4465 36H33.0865L33.1105 15.36H28.7665V12H33.1105L33.0865 4.464H36.4465L36.4705 12H42.2065V15.36ZM45.5294 26.808V12H48.8894V26.136C48.8894 27.448 49.2094 28.64 49.8494 29.712C50.4894 30.784 51.3454 31.64 52.4174 32.28C53.5054 32.92 54.6974 33.24 55.9934 33.24C57.3054 33.24 58.4894 32.92 59.5454 32.28C60.6174 31.64 61.4734 30.784 62.1134 29.712C62.7534 28.64 63.0734 27.448 63.0734 26.136V12H66.4334L66.4574 36H63.0974L63.0734 32.64C62.2254 33.856 61.1214 34.824 59.7614 35.544C58.4174 36.264 56.9454 36.624 55.3454 36.624C53.5374 36.624 51.8894 36.184 50.4014 35.304C48.9134 34.424 47.7294 33.24 46.8494 31.752C45.9694 30.264 45.5294 28.616 45.5294 26.808ZM90.8039 -2.86102e-06H94.1639V36H90.8039V31.512C89.9719 33.048 88.8279 34.288 87.3719 35.232C85.9319 36.16 84.2199 36.624 82.2359 36.624C80.4919 36.624 78.8599 36.296 77.3399 35.64C75.8199 34.984 74.4759 34.08 73.3079 32.928C72.1559 31.76 71.2519 30.416 70.5959 28.896C69.9399 27.376 69.6119 25.744 69.6119 24C69.6119 22.256 69.9399 20.624 70.5959 19.104C71.2519 17.568 72.1559 16.224 73.3079 15.072C74.4759 13.904 75.8199 12.992 77.3399 12.336C78.8599 11.68 80.4919 11.352 82.2359 11.352C84.2199 11.352 85.9319 11.824 87.3719 12.768C88.8279 13.696 89.9719 14.92 90.8039 16.44V-2.86102e-06ZM82.2599 33.36C83.9719 33.36 85.4439 32.944 86.6759 32.112C87.9079 31.264 88.8519 30.128 89.5079 28.704C90.1799 27.28 90.5159 25.712 90.5159 24C90.5159 22.24 90.1799 20.656 89.5079 19.248C88.8359 17.824 87.8839 16.696 86.6519 15.864C85.4199 15.032 83.9559 14.616 82.2599 14.616C80.5639 14.616 79.0199 15.04 77.6279 15.888C76.2359 16.72 75.1239 17.848 74.2919 19.272C73.4599 20.696 73.0439 22.272 73.0439 24C73.0439 25.744 73.4679 27.328 74.3159 28.752C75.1639 30.16 76.2839 31.28 77.6759 32.112C79.0839 32.944 80.6119 33.36 82.2599 33.36ZM115.664 12H119.216L106.088 48H102.512L106.88 36L98.2638 12H101.936L108.56 31.368L115.664 12ZM124.021 36V2.4H129.877V30.144H143.869V36H124.021ZM165.273 12H171.129V36H165.273L165.009 33.024C164.353 34.096 163.481 34.968 162.393 35.64C161.321 36.296 160.049 36.624 158.577 36.624C156.801 36.624 155.137 36.288 153.585 35.616C152.033 34.944 150.665 34.016 149.481 32.832C148.313 31.648 147.393 30.28 146.721 28.728C146.065 27.176 145.737 25.512 145.737 23.736C145.737 22.024 146.049 20.416 146.673 18.912C147.313 17.408 148.201 16.088 149.337 14.952C150.473 13.816 151.785 12.928 153.273 12.288C154.761 11.648 156.361 11.328 158.073 11.328C159.657 11.328 161.073 11.68 162.321 12.384C163.585 13.088 164.657 13.984 165.537 15.072L165.273 12ZM158.433 30.984C159.681 30.984 160.785 30.672 161.745 30.048C162.705 29.424 163.457 28.584 164.001 27.528C164.545 26.456 164.817 25.28 164.817 24C164.817 22.704 164.545 21.528 164.001 20.472C163.457 19.4 162.697 18.552 161.721 17.928C160.761 17.304 159.665 16.992 158.433 16.992C157.201 16.992 156.073 17.312 155.049 17.952C154.041 18.576 153.233 19.416 152.625 20.472C152.033 21.528 151.737 22.704 151.737 24C151.737 25.296 152.041 26.472 152.649 27.528C153.257 28.584 154.065 29.424 155.073 30.048C156.097 30.672 157.217 30.984 158.433 30.984ZM188.82 11.328C191.156 11.328 193.284 11.896 195.204 13.032C197.124 14.168 198.652 15.696 199.788 17.616C200.924 19.52 201.492 21.632 201.492 23.952C201.492 25.696 201.164 27.336 200.508 28.872C199.852 30.408 198.94 31.76 197.772 32.928C196.62 34.08 195.276 34.984 193.74 35.64C192.22 36.296 190.58 36.624 188.82 36.624C187.316 36.624 185.98 36.288 184.812 35.616C183.66 34.928 182.692 34.04 181.908 32.952V36H176.052V-2.86102e-06H181.908V15C182.692 13.912 183.66 13.032 184.812 12.36C185.98 11.672 187.316 11.328 188.82 11.328ZM188.748 30.96C189.996 30.96 191.124 30.648 192.132 30.024C193.156 29.384 193.972 28.536 194.58 27.48C195.188 26.424 195.492 25.248 195.492 23.952C195.492 22.672 195.188 21.504 194.58 20.448C193.972 19.376 193.156 18.528 192.132 17.904C191.108 17.28 189.98 16.968 188.748 16.968C187.532 16.968 186.444 17.288 185.484 17.928C184.524 18.552 183.772 19.4 183.228 20.472C182.684 21.528 182.412 22.688 182.412 23.952C182.412 25.248 182.684 26.432 183.228 27.504C183.772 28.56 184.524 29.4 185.484 30.024C186.444 30.648 187.532 30.96 188.748 30.96Z" fill="#FF8700"/>
</svg>
