<svg width="22" height="24" viewBox="0 0 22 24" fill="none" xmlns="http://www.w3.org/2000/svg">
<path d="M6.21875 13.3125C6.21875 11.125 6.76953 9.30469 7.87109 7.85156C8.98047 6.39844 10.2656 5.67188 11.7266 5.67188C12.3828 5.67188 12.9883 5.80469 13.543 6.07031C14.1055 6.33594 14.5625 6.61719 14.9141 6.91406H15.875L14.4805 13.8984C14.2852 14.8906 14.3672 15.5781 14.7266 15.9609C15.0859 16.3438 15.5977 16.5352 16.2617 16.5352C17.3633 16.5352 18.2578 15.9688 18.9453 14.8359C19.6406 13.7031 19.9883 12.2188 19.9883 10.3828C19.9883 8.22656 19.2578 6.33203 17.7969 4.69922C16.3359 3.05859 14.2812 2.23828 11.6328 2.23828C8.99219 2.23828 6.77734 3.25391 4.98828 5.28516C3.19922 7.30859 2.30469 9.75 2.30469 12.6094C2.30469 15.4766 3.08203 17.6875 4.63672 19.2422C6.19922 20.7969 8.14453 21.5742 10.4727 21.5742C11.5586 21.5742 12.4766 21.4688 13.2266 21.2578C13.9766 21.0469 14.6094 20.8008 15.125 20.5195V22.1719C14.5859 22.5156 13.9453 22.7773 13.2031 22.957C12.4688 23.1367 11.5586 23.2266 10.4727 23.2266C7.71484 23.2266 5.33594 22.2773 3.33594 20.3789C1.33594 18.4805 0.335938 15.8906 0.335938 12.6094C0.335938 9.32812 1.44922 6.50391 3.67578 4.13672C5.91016 1.76953 8.5625 0.585938 11.6328 0.585938C14.7031 0.585938 17.1797 1.53516 19.0625 3.43359C20.9531 5.33203 21.8984 7.64844 21.8984 10.3828C21.8984 12.6484 21.3672 14.4844 20.3047 15.8906C19.25 17.2969 17.957 18 16.4258 18C15.5352 18 14.7617 17.8047 14.1055 17.4141C13.457 17.0234 12.9844 16.5078 12.6875 15.8672C12.3281 16.5078 11.8828 17.0234 11.3516 17.4141C10.8203 17.8047 10.2461 18 9.62891 18C8.58984 18 7.76172 17.5703 7.14453 16.7109C6.52734 15.8516 6.21875 14.7188 6.21875 13.3125ZM8.21094 13.3125C8.21094 14.3047 8.375 15.0586 8.70312 15.5742C9.03125 16.0898 9.50781 16.3477 10.1328 16.3477C10.6797 16.3477 11.1719 16.1289 11.6094 15.6914C12.0469 15.2539 12.3789 14.4961 12.6055 13.418L13.7656 7.71094C13.5391 7.54688 13.2695 7.41797 12.957 7.32422C12.6445 7.23047 12.332 7.18359 12.0195 7.18359C10.918 7.18359 10.0078 7.76562 9.28906 8.92969C8.57031 10.0938 8.21094 11.5547 8.21094 13.3125Z" fill="#505050"/>
</svg>
