<svg width="25" height="23" viewBox="0 0 25 23" fill="none" xmlns="http://www.w3.org/2000/svg">
<path d="M21.5439 2.25769H12.7799L8.77995 0.25769H3.54395C2.7483 0.25769 1.98523 0.573761 1.42262 1.13637C0.860016 1.69898 0.543945 2.46204 0.543945 3.25769L0.543945 22.2577H24.5439V5.25769C24.5439 4.46204 24.2279 3.69898 23.6653 3.13637C23.1027 2.57376 22.3396 2.25769 21.5439 2.25769ZM3.54395 2.25769H8.30795L12.3079 4.25769H21.5439C21.8092 4.25769 22.0635 4.36305 22.2511 4.55058C22.4386 4.73812 22.5439 4.99247 22.5439 5.25769V6.13869L2.54395 6.25169V3.25769C2.54395 2.99247 2.6493 2.73812 2.83684 2.55058C3.02437 2.36305 3.27873 2.25769 3.54395 2.25769ZM2.54395 20.2577V8.25169L22.5439 8.13869V20.2577H2.54395Z" fill="#505050"/>
</svg>
