<svg width="25" height="25" viewBox="0 0 25 25" fill="none" xmlns="http://www.w3.org/2000/svg">
<g clip-path="url(#clip0_1475_941)">
<path d="M12.544 0.145508C10.1815 0.145508 7.87194 0.849296 5.90753 2.16787C3.94312 3.48645 2.41205 5.36059 1.50793 7.55331C0.603809 9.74602 0.36725 12.1588 0.828166 14.4866C1.28908 16.8144 2.42677 18.9526 4.09736 20.6308C5.76796 22.309 7.89642 23.4519 10.2136 23.9149C12.5308 24.378 14.9326 24.1403 17.1153 23.2321C19.2981 22.3238 21.1637 20.7857 22.4763 18.8124C23.7888 16.839 24.4894 14.5189 24.4894 12.1455C24.486 8.96397 23.2264 5.91372 20.9869 3.66403C18.7475 1.41434 15.7111 0.148949 12.544 0.145508V0.145508ZM12.544 22.1455C10.5752 22.1455 8.65062 21.559 7.01361 20.4602C5.3766 19.3614 4.10071 17.7996 3.34728 15.9723C2.59385 14.1451 2.39671 12.1344 2.78081 10.1946C3.16491 8.2548 4.11298 6.47297 5.50514 5.07444C6.8973 3.67592 8.67102 2.72351 10.602 2.33766C12.533 1.9518 14.5345 2.14984 16.3535 2.90671C18.1724 3.66359 19.7271 4.94531 20.8209 6.58981C21.9147 8.2343 22.4985 10.1677 22.4985 12.1455C22.4956 14.7968 21.4459 17.3386 19.5797 19.2134C17.7135 21.0881 15.1832 22.1426 12.544 22.1455Z" fill="#505050"/>
<path d="M13.258 5.20816C12.684 5.10309 12.094 5.12604 11.5297 5.2754C10.9655 5.42475 10.4408 5.69686 9.99285 6.07246C9.54489 6.44806 9.18457 6.91798 8.9374 7.44896C8.69022 7.97993 8.56224 8.55899 8.5625 9.14516C8.5625 9.41037 8.66738 9.66473 8.85406 9.85226C9.04074 10.0398 9.29394 10.1452 9.55795 10.1452C9.82196 10.1452 10.0752 10.0398 10.2618 9.85226C10.4485 9.66473 10.5534 9.41037 10.5534 9.14516C10.5531 8.85093 10.6175 8.56028 10.7419 8.29392C10.8663 8.02755 11.0477 7.79205 11.2731 7.60419C11.4985 7.41633 11.7624 7.28074 12.046 7.2071C12.3296 7.13346 12.6258 7.12358 12.9136 7.17816C13.3068 7.25484 13.6684 7.44754 13.9521 7.73165C14.2358 8.01575 14.4288 8.37836 14.5063 8.77316C14.5847 9.18756 14.5306 9.61623 14.3518 9.99789C14.173 10.3796 13.8787 10.6947 13.5109 10.8982C12.9018 11.2526 12.3985 11.7647 12.0535 12.381C11.7084 12.9972 11.5341 13.6952 11.5488 14.4022V15.1452C11.5488 15.4104 11.6537 15.6647 11.8404 15.8523C12.0271 16.0398 12.2803 16.1452 12.5443 16.1452C12.8083 16.1452 13.0615 16.0398 13.2482 15.8523C13.4349 15.6647 13.5397 15.4104 13.5397 15.1452V14.4022C13.5272 14.0542 13.6062 13.709 13.7688 13.4014C13.9313 13.0939 14.1716 12.8348 14.4655 12.6502C15.1867 12.2522 15.7675 11.6396 16.128 10.8966C16.4885 10.1535 16.6109 9.31651 16.4786 8.50068C16.3462 7.68485 15.9655 6.93025 15.3888 6.34065C14.8121 5.75106 14.0677 5.35542 13.258 5.20816Z" fill="#505050"/>
<path d="M13.5397 18.1452C13.5397 17.5929 13.0941 17.1452 12.5443 17.1452C11.9945 17.1452 11.5488 17.5929 11.5488 18.1452C11.5488 18.6975 11.9945 19.1452 12.5443 19.1452C13.0941 19.1452 13.5397 18.6975 13.5397 18.1452Z" fill="#505050"/>
</g>
<defs>
<clipPath id="clip0_1475_941">
<rect width="23.8908" height="24" fill="white" transform="translate(0.598633 0.145508)"/>
</clipPath>
</defs>
</svg>
