<svg width="25" height="25" viewBox="0 0 25 25" fill="none" xmlns="http://www.w3.org/2000/svg">
<g clip-path="url(#clip0_1475_934)">
<path d="M12.544 0.701416C10.1706 0.701416 7.8505 1.4052 5.87711 2.72378C3.90372 4.04236 2.36565 5.9165 1.4574 8.10922C0.549145 10.3019 0.311505 12.7147 0.774527 15.0425C1.23755 17.3703 2.38044 19.5085 4.05867 21.1867C5.7369 22.8649 7.8751 24.0078 10.2029 24.4708C12.5306 24.9339 14.9434 24.6962 17.1362 23.788C19.3289 22.8797 21.203 21.3417 22.5216 19.3683C23.8402 17.3949 24.544 15.0748 24.544 12.7014C24.5405 9.51988 23.2751 6.46963 21.0254 4.21994C18.7757 1.97024 15.7255 0.704857 12.544 0.701416V0.701416ZM12.544 22.7014C10.5661 22.7014 8.63274 22.1149 6.98825 21.0161C5.34376 19.9173 4.06203 18.3555 3.30516 16.5283C2.54828 14.701 2.35025 12.6903 2.7361 10.7505C3.12195 8.8107 4.07436 7.02887 5.47288 5.63035C6.87141 4.23182 8.65324 3.27942 10.593 2.89356C12.5329 2.50771 14.5435 2.70574 16.3708 3.46262C18.198 4.2195 19.7598 5.50122 20.8586 7.14571C21.9575 8.79021 22.544 10.7236 22.544 12.7014C22.541 15.3527 21.4865 17.8945 19.6118 19.7693C17.7371 21.644 15.1952 22.6985 12.544 22.7014Z" fill="#505050"/>
<path d="M12.544 5.70154C12.2787 5.70154 12.0244 5.8069 11.8368 5.99443C11.6493 6.18197 11.5439 6.43632 11.5439 6.70154V14.7015C11.5439 14.9668 11.6493 15.2211 11.8368 15.4086C12.0244 15.5962 12.2787 15.7015 12.544 15.7015C12.8092 15.7015 13.0635 15.5962 13.2511 15.4086C13.4386 15.2211 13.544 14.9668 13.544 14.7015V6.70154C13.544 6.43632 13.4386 6.18197 13.2511 5.99443C13.0635 5.8069 12.8092 5.70154 12.544 5.70154Z" fill="#505050"/>
<path d="M13.544 18.7015C13.544 18.1493 13.0962 17.7015 12.544 17.7015C11.9917 17.7015 11.5439 18.1493 11.5439 18.7015C11.5439 19.2538 11.9917 19.7015 12.544 19.7015C13.0962 19.7015 13.544 19.2538 13.544 18.7015Z" fill="#505050"/>
</g>
<defs>
<clipPath id="clip0_1475_934">
<rect width="24" height="24" fill="white" transform="translate(0.543945 0.701416)"/>
</clipPath>
</defs>
</svg>
