<svg width="35" height="36" viewBox="0 0 35 36" fill="none" xmlns="http://www.w3.org/2000/svg">
<path d="M33.9191 24.0064L30.1274 10.5178C29.3177 7.63245 27.5535 5.09728 25.1155 3.31581C22.6775 1.53434 19.7059 0.608937 16.6735 0.686894C13.6411 0.764851 10.7223 1.84168 8.38159 3.74601C6.04086 5.65033 4.41274 8.27272 3.75636 11.1958L0.823652 24.2223C0.681745 24.8534 0.685207 25.5079 0.833781 26.1375C0.982354 26.7671 1.27225 27.3557 1.68208 27.86C2.09191 28.3642 2.61121 28.7712 3.20167 29.0509C3.79214 29.3306 4.4387 29.4759 5.09365 29.4761H10.3539C10.6886 31.103 11.5828 32.5657 12.8852 33.6163C14.1875 34.667 15.8177 35.2409 17.4997 35.2409C19.1817 35.2409 20.8119 34.667 22.1142 33.6163C23.4165 32.5657 24.3108 31.103 24.6455 29.4761H29.7059C30.3799 29.4758 31.0446 29.3218 31.6483 29.0262C32.252 28.7306 32.7783 28.3014 33.1863 27.7719C33.5942 27.2425 33.8727 26.6272 34.0001 25.974C34.1275 25.3208 34.1002 24.6475 33.9205 24.0064H33.9191ZM17.4997 32.3549C16.5981 32.3512 15.7196 32.0726 14.9845 31.5573C14.2494 31.042 13.6936 30.3151 13.393 29.4761H21.6064C21.3058 30.3151 20.75 31.042 20.0149 31.5573C19.2798 32.0726 18.4013 32.3512 17.4997 32.3549ZM30.8653 26.0287C30.7293 26.2068 30.5529 26.3509 30.3503 26.4496C30.1477 26.5484 29.9246 26.5989 29.6987 26.5973H5.09365C4.87528 26.5973 4.65971 26.5488 4.46285 26.4556C4.26598 26.3623 4.09285 26.2266 3.95623 26.0584C3.81961 25.8903 3.72299 25.694 3.67351 25.4841C3.62402 25.2742 3.62293 25.056 3.67032 24.8456L6.60303 11.819C7.11979 9.52495 8.39868 7.46719 10.2364 5.97287C12.0741 4.47856 14.3652 3.63346 16.7454 3.57191C19.1256 3.51037 21.4584 4.23591 23.3728 5.63321C25.2873 7.0305 26.6736 9.01935 27.3114 11.2836L31.103 24.7722C31.1649 24.9854 31.1757 25.21 31.1344 25.4281C31.0932 25.6462 31.001 25.8519 30.8653 26.0287Z" fill="black"/>
</svg>
