<svg width="20" height="20" viewBox="0 0 20 20" fill="none" xmlns="http://www.w3.org/2000/svg">
<g clip-path="url(#clip0_1806_1824)">
<path d="M19.0442 1.47341C18.4776 0.940064 17.7098 0.640503 16.9092 0.640503C16.1086 0.640503 15.3407 0.940064 14.7742 1.47341L1.22085 14.2523C0.832722 14.6162 0.524981 15.049 0.315428 15.5257C0.105874 16.0025 -0.00133165 16.5137 1.24844e-05 17.0298V18.6428C1.24844e-05 18.8512 0.0878099 19.0511 0.24409 19.1984C0.40037 19.3458 0.612332 19.4286 0.833346 19.4286H2.54418C3.09148 19.43 3.63365 19.3291 4.13931 19.1316C4.64496 18.9342 5.10406 18.6441 5.49001 18.2783L19.0442 5.49862C19.6096 4.96449 19.9271 4.24067 19.9271 3.48602C19.9271 2.73137 19.6096 2.00754 19.0442 1.47341ZM4.31168 17.1673C3.84168 17.6075 3.20665 17.8553 2.54418 17.8571H1.66668V17.0298C1.66584 16.7201 1.73014 16.4134 1.85588 16.1273C1.98161 15.8413 2.16628 15.5816 2.39918 15.3633L12.685 5.66519L14.6017 7.47234L4.31168 17.1673ZM17.865 4.38762L15.7767 6.35741L13.86 4.55419L15.9492 2.58441C16.075 2.46601 16.2244 2.37214 16.3887 2.30816C16.553 2.24418 16.7291 2.21134 16.9069 2.21153C17.0847 2.21171 17.2607 2.24491 17.4249 2.30922C17.5891 2.37354 17.7382 2.46772 17.8638 2.58637C17.9893 2.70503 18.0889 2.84585 18.1568 3.00079C18.2246 3.15572 18.2594 3.32174 18.2592 3.48937C18.2591 3.657 18.2238 3.82295 18.1556 3.97774C18.0874 4.13254 17.9875 4.27315 17.8617 4.39155L17.865 4.38762Z" fill="#474747"/>
</g>
<defs>
<clipPath id="clip0_1806_1824">
<rect width="20" height="18.8571" fill="white" transform="translate(0 0.571411)"/>
</clipPath>
</defs>
</svg>
