<svg width="19" height="24" viewBox="0 0 19 24" fill="none" xmlns="http://www.w3.org/2000/svg">
<path d="M18.5 24.0006H16.5V18.9576C16.4992 18.1736 16.1874 17.4219 15.633 16.8676C15.0787 16.3132 14.327 16.0014 13.543 16.0006H5.457C4.673 16.0014 3.92134 16.3132 3.36696 16.8676C2.81259 17.4219 2.50079 18.1736 2.5 18.9576V24.0006H0.5V18.9576C0.501588 17.6434 1.02435 16.3835 1.95363 15.4542C2.8829 14.525 4.14281 14.0022 5.457 14.0006H13.543C14.8572 14.0022 16.1171 14.525 17.0464 15.4542C17.9756 16.3835 18.4984 17.6434 18.5 18.9576V24.0006Z" fill="#505050"/>
<path d="M9.5 11.9999C8.31332 11.9999 7.15328 11.648 6.16658 10.9888C5.17989 10.3295 4.41085 9.3924 3.95673 8.29604C3.5026 7.19969 3.38378 5.99329 3.61529 4.8294C3.8468 3.66551 4.41825 2.59642 5.25736 1.7573C6.09648 0.918186 7.16558 0.346741 8.32946 0.11523C9.49335 -0.116281 10.6997 0.00253868 11.7961 0.456664C12.8925 0.91079 13.8295 1.67983 14.4888 2.66652C15.1481 3.65321 15.5 4.81325 15.5 5.99994C15.4984 7.59075 14.8658 9.11595 13.7409 10.2408C12.616 11.3657 11.0908 11.9984 9.5 11.9999ZM9.5 1.99994C8.70888 1.99994 7.93552 2.23454 7.27772 2.67406C6.61993 3.11359 6.10724 3.7383 5.80448 4.46921C5.50173 5.20011 5.42252 6.00438 5.57686 6.7803C5.7312 7.55623 6.11217 8.26896 6.67158 8.82837C7.23099 9.38778 7.94372 9.76874 8.71964 9.92308C9.49557 10.0774 10.2998 9.99821 11.0307 9.69546C11.7616 9.39271 12.3864 8.88002 12.8259 8.22222C13.2654 7.56443 13.5 6.79107 13.5 5.99994C13.5 4.93908 13.0786 3.92166 12.3284 3.17151C11.5783 2.42137 10.5609 1.99994 9.5 1.99994Z" fill="#505050"/>
</svg>
